HIERARCHY
ROOT Hip
{
  OFFSET 0.0 0.0 0.0
  CHANNELS 6 Xposition Yposition Zposition Xrotation Yrotation Zrotation
  JOINT LowerSpine
  {
    OFFSET 0.0 0.061367 -0.03653
    CHANNELS 3 Xrotation Yrotation Zrotation
    JOINT MiddleSpine
    {
      OFFSET 0.0 0.056002 0.002633
      CHANNELS 3 Xrotation Yrotation Zrotation
      JOINT Chest
      {
        OFFSET 0.0 0.069296 -0.013882
        CHANNELS 3 Xrotation Yrotation Zrotation
        JOINT Neck
        {
          OFFSET 0.0 0.156156 -0.002923
          CHANNELS 3 Xrotation Yrotation Zrotation
          JOINT Head
          {
            OFFSET 0.0 0.088183 0.023986
            CHANNELS 3 Xrotation Yrotation Zrotation
            End Site
            {
              OFFSET 1e-06 0.123215 0.003678
            }
          }
        }
        JOINT LClavicle
        {
          OFFSET 0.014189 0.150698 0.046467
          CHANNELS 3 Xrotation Yrotation Zrotation
          JOINT LShoulder
          {
            OFFSET 0.082893 0.021616 -0.034976
            CHANNELS 3 Xrotation Yrotation Zrotation
            JOINT LForearm
            {
              OFFSET 0.195645 -0.000695 -0.001695
              CHANNELS 3 Xrotation Yrotation Zrotation
              JOINT LHand
              {
                OFFSET 0.163209 0.000474 -0.000977
                CHANNELS 3 Xrotation Yrotation Zrotation
                End Site
                {
                  OFFSET 0.0 0.006864 0.0
                }
              }
            }
          }
        }
        JOINT RClavicle
        {
          OFFSET -0.014189 0.150698 0.046467
          CHANNELS 3 Xrotation Yrotation Zrotation
          JOINT RShoulder
          {
            OFFSET -0.082908 0.021619 -0.034982
            CHANNELS 3 Xrotation Yrotation Zrotation
            JOINT RForearm
            {
              OFFSET -0.195645 -0.000695 -0.001695
              CHANNELS 3 Xrotation Yrotation Zrotation
              JOINT RHand
              {
                OFFSET -0.163209 0.000474 -0.000977
                CHANNELS 3 Xrotation Yrotation Zrotation
                End Site
                {
                  OFFSET 0.0 0.006864 0.0
                }
              }
            }
          }
        }
      }
    }
  }
  JOINT RThigh
  {
    OFFSET -0.072558 0.02774 -0.005953
    CHANNELS 3 Xrotation Yrotation Zrotation
    JOINT RShin
    {
      OFFSET -0.005253 -0.285537 0.0
      CHANNELS 3 Xrotation Yrotation Zrotation
      JOINT RFoot
      {
        OFFSET 0.0 -0.28038 0.0
        CHANNELS 3 Xrotation Yrotation Zrotation
        JOINT RToe
        {
          OFFSET 0.0 -0.030816 0.064441
          CHANNELS 3 Xrotation Yrotation Zrotation
          End Site
          {
            OFFSET 0.0 0.0 0.043231
          }
        }
      }
    }
  }
  JOINT LThigh
  {
    OFFSET 0.072557 0.027741 -0.005953
    CHANNELS 3 Xrotation Yrotation Zrotation
    JOINT LShin
    {
      OFFSET 0.005253 -0.285539 0.0
      CHANNELS 3 Xrotation Yrotation Zrotation
      JOINT LFoot
      {
        OFFSET 0.0 -0.28038 0.0
        CHANNELS 3 Xrotation Yrotation Zrotation
        JOINT LToe
        {
          OFFSET 0.0 -0.030816 0.064441
          CHANNELS 3 Xrotation Yrotation Zrotation
          End Site
          {
            OFFSET 0.0 0.0 0.043231
          }
        }
      }
    }
  }
}
MOTION
Frames: 6
Frame Time: 0.03333333333333333
-0.026222 0.57015 0.006668 6.08553 2.216743 2.745763 -5.180793 5.991699 -5.727076 -1.212221 -1.267836 -8.693229 -3.288949 -4.821763 11.387178 0.201879 -9.628364 2.245907 -4.176684 9.785679 3.251846 -2.973461 9.168413 -14.906564 15.91362 -12.313972 -57.727627 -0.3182 -25.117537 -8.21127 -7.014543 -5.966663 5.049259 10.37168 -0.74202 7.763207 -36.944614 12.50372 29.573326 -88.47377 83.58638 45.190681 9.821047 2.679432 3.690688 -4.787595 -1.091895 -6.690966 -0.119099 8.815443 4.169565 -4.1598 -1.78056 10.324871 5.208027 -8.200722 -4.220321 -2.523502 -0.064577 -5.149787 0.33689 9.84081 7.253179 -3.036903 16.520521 -1.583022 -9.036679 6.807776 2.80659 
-0.02652 0.569534 0.007422 6.118094 2.223701 2.797901 -5.034039 5.955105 -5.88029 -1.180928 -1.302148 -8.722362 -3.170602 -4.60399 11.505457 0.289356 -9.643048 2.302873 -4.219184 9.822309 3.278703 -3.009931 9.103907 -14.679414 15.643719 -12.423703 -57.672226 -0.453309 -24.956999 -8.160354 -7.05659 -5.992774 5.075254 10.458074 -0.544456 7.96137 -36.743111 12.114759 30.368952 -83.349457 82.889198 40.22821 9.852174 2.686677 3.731079 -4.830711 -1.064036 -6.617403 -0.03714 8.878437 4.279542 -4.312986 -1.717833 10.366611 5.194599 -8.250822 -4.256608 -2.568687 -0.066283 -5.121587 0.433897 9.830082 7.315083 -3.084176 16.383341 -1.725915 -9.038676 6.863012 2.843884 
-0.027292 0.568839 0.008082 6.127928 2.219463 2.83366 -4.890634 5.917211 -6.023098 -1.165183 -1.328308 -8.765727 -3.04176 -4.4458 11.546369 0.338847 -9.655612 2.348328 -4.264021 9.85016 3.302056 -3.077438 9.016369 -14.420571 15.447839 -12.46911 -57.536716 -0.597522 -24.831821 -8.092689 -7.098604 -6.014801 5.094582 10.526601 -0.315653 8.150185 -36.333477 11.60419 31.158457 -81.037766 82.475533 38.092289 9.87577 2.698266 3.772375 -4.890152 -1.067821 -6.575029 0.040073 8.865601 4.400277 -4.455982 -1.635993 10.415643 5.181143 -8.295815 -4.293667 -2.605619 -0.073428 -5.0485 0.538189 9.804393 7.349457 -3.136822 16.249073 -1.861978 -9.032455 6.91196 2.881385 
-0.028516 0.568107 0.008563 6.132381 2.208342 2.843745 -4.753583 5.870659 -6.159195 -1.160088 -1.353769 -8.810287 -2.912495 -4.341871 11.531862 0.333907 -9.660716 2.38842 -4.309169 9.863502 3.319122 -3.164216 8.914557 -14.145273 15.324172 -12.474051 -57.347527 -0.726207 -24.773779 -8.018278 -7.136312 -6.027386 5.098923 10.566438 -0.073082 8.333018 -35.734661 11.019782 31.912424 -80.304222 82.322662 37.566513 9.88752 2.710871 3.807642 -4.97372 -1.110315 -6.546367 0.114236 8.765636 4.530444 -4.590284 -1.521375 10.469431 5.160264 -8.327244 -4.327559 -2.664614 -0.087781 -4.923199 0.659527 9.764456 7.352913 -3.183137 16.112692 -1.993944 -9.023682 6.9453 2.91381 
-0.030133 0.567421 0.008856 6.127189 2.183073 2.828369 -4.619724 5.82232 -6.284429 -1.155096 -1.379291 -8.842902 -2.780843 -4.261058 11.4856 0.297032 -9.655575 2.432747 -4.350569 9.859661 3.329068 -3.261467 8.804098 -13.875039 15.216759 -12.461453 -57.1427 -0.848884 -24.767138 -7.936142 -7.161783 -6.031241 5.089552 10.573568 0.167726 8.516712 -35.046635 10.411695 32.63744 -80.095604 82.30323 37.57938 9.883362 2.721853 3.836116 -5.062657 -1.167222 -6.51298 0.188757 8.61902 4.671061 -4.720834 -1.392862 10.516472 5.136031 -8.343687 -4.354223 -2.707232 -0.103336 -4.760965 0.780239 9.717376 7.342879 -3.249618 15.986731 -2.110607 -9.013179 6.961535 2.940724 
-0.032072 0.566763 0.008888 6.11927 2.157136 2.797624 -4.482629 5.76728 -6.408944 -1.152349 -1.417285 -8.869105 -2.661138 -4.19365 11.415632 0.302296 -9.641583 2.493483 -4.392313 9.854168 3.33779 -3.356284 8.70575 -13.61675 15.089174 -12.464251 -56.938683 -0.979158 -24.759741 -7.863981 -7.183366 -6.036485 5.080321 10.567696 0.396005 8.692312 -34.430935 9.878439 33.328632 -79.55632 82.225517 37.234711 9.879374 2.731035 3.864551 -5.173952 -1.187544 -6.472049 0.275469 8.496367 4.816277 -4.842808 -1.273755 10.557592 5.116152 -8.360365 -4.378459 -2.739619 -0.080472 -4.595431 0.900765 9.700435 7.340926 -3.350498 15.884918 -2.219237 -9.007063 6.976347 2.969518 
